{
  "accessors": [
    {
      "bufferView": 2,
      "componentType": 5126,
      "count": 322,
      "max": [
        4.137608051300049,
        -4.8943681716918945,
        163.8566131591797
      ],
      "min": [
        -4.137979030609131,
        -6.663332939147949,
        160.758544921875
      ],
      "type": "VEC3"
    },
    {
      "bufferView": 2,
      "byteOffset": 3864,
      "componentType": 5126,
      "count": 322,
      "max": [
        0.9991572499275208,
        0.011399692855775356,
        0.9747332334518433
      ],
      "min": [
        -0.9991892576217651,
        -0.999937891960144,
        -0.9989712834358215
      ],
      "type": "VEC3"
    },
    {
      "bufferView": 1,
      "componentType": 5126,
      "count": 322,
      "max": [
        0.5003629922866821,
        0.18883100152015686
      ],
      "min": [
        0.3240180015563965,
        0.012517999857664108
      ],
      "type": "VEC2"
    },
    {
      "bufferView": 0,
      "componentType": 5125,
      "count": 1824,
      "type": "SCALAR"
    },
    {
      "bufferView": 2,
      "byteOffset": 7728,
      "componentType": 5126,
      "count": 5921,
      "max": [
        7.285215854644775,
        7.624299049377441,
        170.19322204589844
      ],
      "min": [
        -7.285584926605225,
        -9.311881065368652,
        153.6325225830078
      ],
      "type": "VEC3"
    },
    {
      "bufferView": 2,
      "byteOffset": 78780,
      "componentType": 5126,
      "count": 5921,
      "max": [
        0.9989571571350098,
        0.9965717196464539,
        0.9980576038360596
      ],
      "min": [
        -0.9989730715751648,
        -0.9999885559082031,
        -0.9991058707237244
      ],
      "type": "VEC3"
    },
    {
      "bufferView": 1,
      "byteOffset": 2576,
      "componentType": 5126,
      "count": 5921,
      "max": [
        0.9965699911117554,
        0.9937750101089478
      ],
      "min": [
        0.007821000181138515,
        0.005985000170767307
      ],
      "type": "VEC2"
    },
    {
      "bufferView": 0,
      "byteOffset": 7296,
      "componentType": 5125,
      "count": 23922,
      "type": "SCALAR"
    },
    {
      "bufferView": 2,
      "byteOffset": 149832,
      "componentType": 5126,
      "count": 4725,
      "max": [
        45.289100646972656,
        12.993975639343262,
        155.84275817871094
      ],
      "min": [
        -45.289466857910156,
        -16.655902862548828,
        -9.999999974752427e-07
      ],
      "type": "VEC3"
    },
    {
      "bufferView": 2,
      "byteOffset": 206532,
      "componentType": 5126,
      "count": 4725,
      "max": [
        0.999319314956665,
        0.9977054595947266,
        0.999072253704071
      ],
      "min": [
        -0.9993172883987427,
        -0.9999611377716064,
        -1.0
      ],
      "type": "VEC3"
    },
    {
      "bufferView": 1,
      "byteOffset": 49944,
      "componentType": 5126,
      "count": 4725,
      "max": [
        0.9963200092315674,
        0.9957730174064636
      ],
      "min": [
        0.003183000022545457,
        0.01140700001269579
      ],
      "type": "VEC2"
    },
    {
      "bufferView": 0,
      "byteOffset": 102984,
      "componentType": 5125,
      "count": 15474,
      "type": "SCALAR"
    },
    {
      "bufferView": 2,
      "byteOffset": 263232,
      "componentType": 5126,
      "count": 4929,
      "max": [
        54.60276412963867,
        12.474383354187012,
        157.1162109375
      ],
      "min": [
        -54.60313415527344,
        -10.243782997131348,
        6.702391147613525
      ],
      "type": "VEC3"
    },
    {
      "bufferView": 2,
      "byteOffset": 322380,
      "componentType": 5126,
      "count": 4929,
      "max": [
        0.9993256330490112,
        0.9995837807655334,
        0.9940544962882996
      ],
      "min": [
        -0.9993256330490112,
        -0.9999076128005981,
        -0.9998840093612671
      ],
      "type": "VEC3"
    },
    {
      "bufferView": 1,
      "byteOffset": 87744,
      "componentType": 5126,
      "count": 4929,
      "max": [
        0.6169189810752869,
        0.9935060143470764
      ],
      "min": [
        0.009030000306665897,
        0.37662801146507263
      ],
      "type": "VEC2"
    },
    {
      "bufferView": 0,
      "byteOffset": 164880,
      "componentType": 5125,
      "count": 24894,
      "type": "SCALAR"
    },
    {
      "bufferView": 2,
      "byteOffset": 381528,
      "componentType": 5126,
      "count": 1824,
      "max": [
        10.320781707763672,
        12.251018524169922,
        173.3688507080078
      ],
      "min": [
        -10.294890403747559,
        -8.560941696166992,
        150.6998748779297
      ],
      "type": "VEC3"
    },
    {
      "bufferView": 2,
      "byteOffset": 403416,
      "componentType": 5126,
      "count": 1824,
      "max": [
        0.9937439560890198,
        0.9995611310005188,
        0.9977675080299377
      ],
      "min": [
        -0.9937439560890198,
        -0.9995611310005188,
        -0.9977675080299377
      ],
      "type": "VEC3"
    },
    {
      "bufferView": 1,
      "byteOffset": 127176,
      "componentType": 5126,
      "count": 1824,
      "max": [
        0.9611250162124634,
        0.9821979999542236
      ],
      "min": [
        0.06797199696302414,
        0.016770999878644943
      ],
      "type": "VEC2"
    },
    {
      "bufferView": 0,
      "byteOffset": 264456,
      "componentType": 5125,
      "count": 6846,
      "type": "SCALAR"
    },
    {
      "bufferView": 2,
      "byteOffset": 425304,
      "componentType": 5126,
      "count": 6832,
      "max": [
        10.40225601196289,
        11.800418853759766,
        173.31100463867188
      ],
      "min": [
        -10.342753410339355,
        -9.835009574890137,
        150.64724731445313
      ],
      "type": "VEC3"
    },
    {
      "bufferView": 2,
      "byteOffset": 507288,
      "componentType": 5126,
      "count": 6832,
      "max": [
        0.9996981024742126,
        0.9999829530715942,
        0.998530924320221
      ],
      "min": [
        -0.9991369247436523,
        -0.9999829530715942,
        -0.9987106323242188
      ],
      "type": "VEC3"
    },
    {
      "bufferView": 1,
      "byteOffset": 141768,
      "componentType": 5126,
      "count": 6832,
      "max": [
        0.9856799840927124,
        0.9946100115776062
      ],
      "min": [
        0.011219000443816185,
        0.01308900024741888
      ],
      "type": "VEC2"
    },
    {
      "bufferView": 0,
      "byteOffset": 291840,
      "componentType": 5125,
      "count": 24630,
      "type": "SCALAR"
    },
    {
      "bufferView": 2,
      "byteOffset": 589272,
      "componentType": 5126,
      "count": 429,
      "max": [
        2.3218650817871094,
        -2.572895050048828,
        158.3230743408203
      ],
      "min": [
        -2.321873903274536,
        -6.90742301940918,
        155.03709411621094
      ],
      "type": "VEC3"
    },
    {
      "bufferView": 2,
      "byteOffset": 594420,
      "componentType": 5126,
      "count": 429,
      "max": [
        0.9942472577095032,
        0.9999469518661499,
        0.9998948574066162
      ],
      "min": [
        -0.9942472577095032,
        -0.9998000264167786,
        -0.9996849894523621
      ],
      "type": "VEC3"
    },
    {
      "bufferView": 1,
      "byteOffset": 196424,
      "componentType": 5126,
      "count": 429,
      "max": [
        0.9922680258750916,
        0.9612640142440796
      ],
      "min": [
        0.047061000019311905,
        0.017347000539302826
      ],
      "type": "VEC2"
    },
    {
      "bufferView": 0,
      "byteOffset": 390360,
      "componentType": 5125,
      "count": 2145,
      "type": "SCALAR"
    }
  ],
  "asset": {
    "extras": {
      "author": "whyink (https://sketchfab.com/whyink)",
      "license": "CC-BY-4.0 (http://creativecommons.org/licenses/by/4.0/)",
      "source": "https://sketchfab.com/3d-models/granado-espada-raviel-3d-model-extract-4ce3d47455da4e79b4937c3644950c0f",
      "title": "Granado Espada_raviel 3D Model extract"
    },
    "generator": "Sketchfab-16.82.0",
    "version": "2.0"
  },
  "bufferViews": [
    {
      "buffer": 0,
      "byteLength": 398940,
      "name": "floatBufferViews",
      "target": 34963
    },
    {
      "buffer": 0,
      "byteLength": 199856,
      "byteOffset": 398940,
      "byteStride": 8,
      "name": "floatBufferViews",
      "target": 34962
    },
    {
      "buffer": 0,
      "byteLength": 599568,
      "byteOffset": 598796,
      "byteStride": 12,
      "name": "floatBufferViews",
      "target": 34962
    }
  ],
  "buffers": [
    {
      "byteLength": 1198364,
      "uri": "scene.bin"
    }
  ],
  "extensionsUsed": [
    "KHR_materials_unlit"
  ],
  "images": [
    {
      "uri": "textures/Object_1_p_1_baseColor.png"
    },
    {
      "uri": "textures/Object_2_p_1_baseColor.png"
    },
    {
      "uri": "textures/Object_2_p_2_baseColor.png"
    },
    {
      "uri": "textures/Object_3_p_1_baseColor.png"
    },
    {
      "uri": "textures/Object_4_baseColor.png"
    }
  ],
  "materials": [
    {
      "doubleSided": true,
      "extensions": {
        "KHR_materials_unlit": {}
      },
      "name": "Object_1_p_1",
      "pbrMetallicRoughness": {
        "baseColorTexture": {
          "index": 0
        },
        "metallicFactor": 0.0
      }
    },
    {
      "doubleSided": true,
      "extensions": {
        "KHR_materials_unlit": {}
      },
      "name": "Object_1_p_2",
      "pbrMetallicRoughness": {
        "baseColorTexture": {
          "index": 0
        },
        "metallicFactor": 0.0
      }
    },
    {
      "doubleSided": true,
      "extensions": {
        "KHR_materials_unlit": {}
      },
      "name": "Object_2_p_1",
      "pbrMetallicRoughness": {
        "baseColorTexture": {
          "index": 1
        },
        "metallicFactor": 0.0
      }
    },
    {
      "doubleSided": true,
      "extensions": {
        "KHR_materials_unlit": {}
      },
      "name": "Object_2_p_2",
      "pbrMetallicRoughness": {
        "baseColorTexture": {
          "index": 2
        },
        "metallicFactor": 0.0
      }
    },
    {
      "doubleSided": true,
      "extensions": {
        "KHR_materials_unlit": {}
      },
      "name": "Object_3_p_1",
      "pbrMetallicRoughness": {
        "baseColorTexture": {
          "index": 3
        },
        "metallicFactor": 0.0
      }
    },
    {
      "doubleSided": true,
      "extensions": {
        "KHR_materials_unlit": {}
      },
      "name": "Object_3_p_2",
      "pbrMetallicRoughness": {
        "baseColorTexture": {
          "index": 3
        },
        "metallicFactor": 0.0
      }
    },
    {
      "doubleSided": true,
      "extensions": {
        "KHR_materials_unlit": {}
      },
      "name": "Object_4",
      "pbrMetallicRoughness": {
        "baseColorTexture": {
          "index": 4
        },
        "metallicFactor": 0.0
      }
    }
  ],
  "meshes": [
    {
      "name": "Object_0",
      "primitives": [
        {
          "attributes": {
            "NORMAL": 1,
            "POSITION": 0,
            "TEXCOORD_0": 2
          },
          "indices": 3,
          "material": 0,
          "mode": 4
        }
      ]
    },
    {
      "name": "Object_1",
      "primitives": [
        {
          "attributes": {
            "NORMAL": 5,
            "POSITION": 4,
            "TEXCOORD_0": 6
          },
          "indices": 7,
          "material": 1,
          "mode": 4
        }
      ]
    },
    {
      "name": "Object_2",
      "primitives": [
        {
          "attributes": {
            "NORMAL": 9,
            "POSITION": 8,
            "TEXCOORD_0": 10
          },
          "indices": 11,
          "material": 2,
          "mode": 4
        }
      ]
    },
    {
      "name": "Object_3",
      "primitives": [
        {
          "attributes": {
            "NORMAL": 13,
            "POSITION": 12,
            "TEXCOORD_0": 14
          },
          "indices": 15,
          "material": 3,
          "mode": 4
        }
      ]
    },
    {
      "name": "Object_4",
      "primitives": [
        {
          "attributes": {
            "NORMAL": 17,
            "POSITION": 16,
            "TEXCOORD_0": 18
          },
          "indices": 19,
          "material": 4,
          "mode": 4
        }
      ]
    },
    {
      "name": "Object_5",
      "primitives": [
        {
          "attributes": {
            "NORMAL": 21,
            "POSITION": 20,
            "TEXCOORD_0": 22
          },
          "indices": 23,
          "material": 5,
          "mode": 4
        }
      ]
    },
    {
      "name": "Object_6",
      "primitives": [
        {
          "attributes": {
            "NORMAL": 25,
            "POSITION": 24,
            "TEXCOORD_0": 26
          },
          "indices": 27,
          "material": 6,
          "mode": 4
        }
      ]
    }
  ],
  "nodes": [
    {
      "children": [
        1
      ],
      "matrix": [
        1.0,
        0.0,
        0.0,
        0.0,
        0.0,
        2.220446049250313e-16,
        -1.0,
        0.0,
        0.0,
        1.0,
        2.220446049250313e-16,
        0.0,
        0.0,
        0.0,
        0.0,
        1.0
      ],
      "name": "Sketchfab_model"
    },
    {
      "children": [
        2,
        3,
        4,
        5,
        6,
        7,
        8
      ],
      "name": "mon_raviel.obj.cleaner.materialmerger.gles"
    },
    {
      "mesh": 0,
      "name": "Object_2"
    },
    {
      "mesh": 1,
      "name": "Object_3"
    },
    {
      "mesh": 2,
      "name": "Object_4"
    },
    {
      "mesh": 3,
      "name": "Object_5"
    },
    {
      "mesh": 4,
      "name": "Object_6"
    },
    {
      "mesh": 5,
      "name": "Object_7"
    },
    {
      "mesh": 6,
      "name": "Object_8"
    }
  ],
  "samplers": [
    {
      "magFilter": 9729,
      "minFilter": 9987,
      "wrapS": 10497,
      "wrapT": 10497
    }
  ],
  "scene": 0,
  "scenes": [
    {
      "name": "Sketchfab_Scene",
      "nodes": [
        0
      ]
    }
  ],
  "textures": [
    {
      "sampler": 0,
      "source": 0
    },
    {
      "sampler": 0,
      "source": 1
    },
    {
      "sampler": 0,
      "source": 2
    },
    {
      "sampler": 0,
      "source": 3
    },
    {
      "sampler": 0,
      "source": 4
    }
  ]
}
