{
  "accessors": [
    {
      "bufferView": 2,
      "componentType": 5126,
      "count": 1299,
      "max": [
        53.37889099121094,
        153.42825317382813,
        6.48480224609375
      ],
      "min": [
        -53.37889099121094,
        91.87902069091797,
        -18.75298309326172
      ],
      "type": "VEC3"
    },
    {
      "bufferView": 2,
      "byteOffset": 15588,
      "componentType": 5126,
      "count": 1299,
      "max": [
        0.9997989535331726,
        0.9485752582550049,
        0.9982683658599854
      ],
      "min": [
        -0.9997989535331726,
        -0.9956344366073608,
        -0.9997400641441345
      ],
      "type": "VEC3"
    },
    {
      "bufferView": 1,
      "componentType": 5126,
      "count": 1299,
      "max": [
        0.99609375,
        0.88916015625
      ],
      "min": [
        0.0042877197265625,
        0.0069732666015625
      ],
      "type": "VEC2"
    },
    {
      "bufferView": 1,
      "byteOffset": 10392,
      "componentType": 5126,
      "count": 1299,
      "max": [
        1.0,
        1.0
      ],
      "min": [
        1.0,
        1.0
      ],
      "type": "VEC2"
    },
    {
      "bufferView": 0,
      "componentType": 5125,
      "count": 6270,
      "type": "SCALAR"
    },
    {
      "bufferView": 2,
      "byteOffset": 31176,
      "componentType": 5126,
      "count": 1570,
      "max": [
        8.79740047454834,
        180.19129943847656,
        9.866405487060547
      ],
      "min": [
        -8.79740047454834,
        148.79112243652344,
        -11.46319580078125
      ],
      "type": "VEC3"
    },
    {
      "bufferView": 2,
      "byteOffset": 50016,
      "componentType": 5126,
      "count": 1570,
      "max": [
        0.9992885589599609,
        0.9972236752510071,
        0.9860733151435852
      ],
      "min": [
        -0.998837947845459,
        -0.9989960789680481,
        -1.0
      ],
      "type": "VEC3"
    },
    {
      "bufferView": 1,
      "byteOffset": 20784,
      "componentType": 5126,
      "count": 1570,
      "max": [
        0.9970703125,
        0.986328125
      ],
      "min": [
        0.006397247314453125,
        0.0017671585083007813
      ],
      "type": "VEC2"
    },
    {
      "bufferView": 1,
      "byteOffset": 33344,
      "componentType": 5126,
      "count": 1570,
      "max": [
        1.0,
        1.0
      ],
      "min": [
        1.0,
        1.0
      ],
      "type": "VEC2"
    },
    {
      "bufferView": 0,
      "byteOffset": 25080,
      "componentType": 5125,
      "count": 9006,
      "type": "SCALAR"
    },
    {
      "bufferView": 2,
      "byteOffset": 68856,
      "componentType": 5126,
      "count": 2572,
      "max": [
        28.364299774169922,
        118.42076873779297,
        17.427249908447266
      ],
      "min": [
        -28.794700622558594,
        6.732458591461182,
        -13.237459182739258
      ],
      "type": "VEC3"
    },
    {
      "bufferView": 2,
      "byteOffset": 99720,
      "componentType": 5126,
      "count": 2572,
      "max": [
        0.9994662404060364,
        0.9990168809890747,
        0.9997060894966125
      ],
      "min": [
        -0.9991205334663391,
        -0.9992558360099792,
        -0.9999146461486816
      ],
      "type": "VEC3"
    },
    {
      "bufferView": 1,
      "byteOffset": 45904,
      "componentType": 5126,
      "count": 2572,
      "max": [
        0.990234375,
        0.98388671875
      ],
      "min": [
        0.01169586181640625,
        0.0115966796875
      ],
      "type": "VEC2"
    },
    {
      "bufferView": 1,
      "byteOffset": 66480,
      "componentType": 5126,
      "count": 2572,
      "max": [
        0.75390625,
        0.9384765625
      ],
      "min": [
        0.24169921875,
        0.266357421875
      ],
      "type": "VEC2"
    },
    {
      "bufferView": 1,
      "byteOffset": 87056,
      "componentType": 5126,
      "count": 2572,
      "max": [
        1.0,
        1.0
      ],
      "min": [
        1.0,
        1.0
      ],
      "type": "VEC2"
    },
    {
      "bufferView": 0,
      "byteOffset": 61104,
      "componentType": 5125,
      "count": 9960,
      "type": "SCALAR"
    },
    {
      "bufferView": 2,
      "byteOffset": 130584,
      "componentType": 5126,
      "count": 3678,
      "max": [
        49.383270263671875,
        159.1644287109375,
        14.856399536132813
      ],
      "min": [
        -49.4873046875,
        102.78995513916016,
        -15.005599975585938
      ],
      "type": "VEC3"
    },
    {
      "bufferView": 2,
      "byteOffset": 174720,
      "componentType": 5126,
      "count": 3678,
      "max": [
        0.9997521042823792,
        0.9999927282333374,
        0.9999575614929199
      ],
      "min": [
        -0.9992026686668396,
        -0.9999921321868896,
        -0.9996119737625122
      ],
      "type": "VEC3"
    },
    {
      "bufferView": 1,
      "byteOffset": 107632,
      "componentType": 5126,
      "count": 3678,
      "max": [
        0.99609375,
        0.98876953125
      ],
      "min": [
        0.01099395751953125,
        0.01019287109375
      ],
      "type": "VEC2"
    },
    {
      "bufferView": 1,
      "byteOffset": 137056,
      "componentType": 5126,
      "count": 3678,
      "max": [
        0.9423828125,
        0.3603515625
      ],
      "min": [
        0.05621337890625,
        0.021331787109375
      ],
      "type": "VEC2"
    },
    {
      "bufferView": 1,
      "byteOffset": 166480,
      "componentType": 5126,
      "count": 3678,
      "max": [
        1.0,
        1.0
      ],
      "min": [
        1.0,
        1.0
      ],
      "type": "VEC2"
    },
    {
      "bufferView": 1,
      "byteOffset": 195904,
      "componentType": 5126,
      "count": 3678,
      "max": [
        0.99609375,
        0.98876953125
      ],
      "min": [
        0.01099395751953125,
        0.01019287109375
      ],
      "type": "VEC2"
    },
    {
      "bufferView": 1,
      "byteOffset": 225328,
      "componentType": 5126,
      "count": 3678,
      "max": [
        0.99609375,
        0.98876953125
      ],
      "min": [
        0.01099395751953125,
        0.01019287109375
      ],
      "type": "VEC2"
    },
    {
      "bufferView": 0,
      "byteOffset": 100944,
      "componentType": 5125,
      "count": 16485,
      "type": "SCALAR"
    },
    {
      "bufferView": 2,
      "byteOffset": 218856,
      "componentType": 5126,
      "count": 302,
      "max": [
        22.954248428344727,
        13.031332015991211,
        13.329438209533691
      ],
      "min": [
        -22.954248428344727,
        0.08237838745117188,
        -15.88360595703125
      ],
      "type": "VEC3"
    },
    {
      "bufferView": 2,
      "byteOffset": 222480,
      "componentType": 5126,
      "count": 302,
      "max": [
        0.9998046159744263,
        0.9678242802619934,
        0.9778993129730225
      ],
      "min": [
        -0.9997714161872864,
        -0.9999841451644897,
        -0.995836615562439
      ],
      "type": "VEC3"
    },
    {
      "bufferView": 1,
      "byteOffset": 254752,
      "componentType": 5126,
      "count": 302,
      "max": [
        22.954248428344727,
        15.88360595703125
      ],
      "min": [
        -22.954248428344727,
        -13.329438209533691
      ],
      "type": "VEC2"
    },
    {
      "bufferView": 1,
      "byteOffset": 257168,
      "componentType": 5126,
      "count": 302,
      "max": [
        5.0,
        5.0
      ],
      "min": [
        0.0,
        0.0
      ],
      "type": "VEC2"
    },
    {
      "bufferView": 1,
      "byteOffset": 259584,
      "componentType": 5126,
      "count": 302,
      "max": [
        1.0,
        0.4901961088180542
      ],
      "min": [
        0.5098039507865906,
        0.0
      ],
      "type": "VEC2"
    },
    {
      "bufferView": 0,
      "byteOffset": 166884,
      "componentType": 5125,
      "count": 1308,
      "type": "SCALAR"
    },
    {
      "bufferView": 2,
      "byteOffset": 226104,
      "componentType": 5126,
      "count": 10083,
      "max": [
        17.13449478149414,
        181.6114959716797,
        14.765079498291016
      ],
      "min": [
        -17.020092010498047,
        150.25076293945313,
        -11.613475799560547
      ],
      "type": "VEC3"
    },
    {
      "bufferView": 2,
      "byteOffset": 347100,
      "componentType": 5126,
      "count": 10083,
      "max": [
        0.9999648332595825,
        0.9995830655097961,
        0.9995872378349304
      ],
      "min": [
        -0.9999648332595825,
        -0.9997875094413757,
        -0.9998210668563843
      ],
      "type": "VEC3"
    },
    {
      "bufferView": 1,
      "byteOffset": 262000,
      "componentType": 5126,
      "count": 10083,
      "max": [
        1.0029296875,
        1.0
      ],
      "min": [
        0.0,
        -0.0022430419921875
      ],
      "type": "VEC2"
    },
    {
      "bufferView": 0,
      "byteOffset": 172116,
      "componentType": 5125,
      "count": 29067,
      "type": "SCALAR"
    }
  ],
  "asset": {
    "extras": {
      "author": "teddu4teddu (https://sketchfab.com/teddu4teddu)",
      "license": "CC-BY-4.0 (http://creativecommons.org/licenses/by/4.0/)",
      "source": "https://sketchfab.com/3d-models/pubg-female-purple-set-205cf7fc83674b4c823024e9ca8fae41",
      "title": "Pubg female Purple Set"
    },
    "generator": "Sketchfab-16.21.0",
    "version": "2.0"
  },
  "bufferViews": [
    {
      "buffer": 0,
      "byteLength": 288384,
      "name": "floatBufferViews",
      "target": 34963
    },
    {
      "buffer": 0,
      "byteLength": 342664,
      "byteOffset": 288384,
      "byteStride": 8,
      "name": "floatBufferViews",
      "target": 34962
    },
    {
      "buffer": 0,
      "byteLength": 468096,
      "byteOffset": 631048,
      "byteStride": 12,
      "name": "floatBufferViews",
      "target": 34962
    }
  ],
  "buffers": [
    {
      "byteLength": 1099144,
      "uri": "scene.bin"
    }
  ],
  "extensionsUsed": [
    "KHR_materials_specular"
  ],
  "images": [
    {
      "uri": "textures/mat_17.009_baseColor.png"
    },
    {
      "uri": "textures/mat_16.010_baseColor.png"
    },
    {
      "uri": "textures/mat_15.011_baseColor.png"
    },
    {
      "uri": "textures/mat_14.011_baseColor.png"
    },
    {
      "uri": "textures/mat_14.011_metallicRoughness.png"
    },
    {
      "uri": "textures/mat_11.011_baseColor.png"
    },
    {
      "uri": "textures/mat0.005_baseColor.png"
    }
  ],
  "materials": [
    {
      "doubleSided": true,
      "extensions": {
        "KHR_materials_specular": {
          "specularColorFactor": [
            1.0,
            1.0,
            1.0
          ],
          "specularFactor": 0.9249551998634662
        }
      },
      "name": "mat_17.009",
      "pbrMetallicRoughness": {
        "baseColorTexture": {
          "index": 0
        },
        "metallicFactor": 0.0,
        "roughnessFactor": 0.12647657592861233
      }
    },
    {
      "doubleSided": true,
      "extensions": {
        "KHR_materials_specular": {
          "specularColorFactor": [
            1.0,
            1.0,
            1.0
          ],
          "specularFactor": 0.19961965598371345
        }
      },
      "name": "mat_16.010",
      "pbrMetallicRoughness": {
        "baseColorTexture": {
          "index": 1
        },
        "metallicFactor": 0.0,
        "roughnessFactor": 0.23009593934000558
      }
    },
    {
      "doubleSided": true,
      "extensions": {
        "KHR_materials_specular": {
          "specularColorFactor": [
            1.0,
            1.0,
            1.0
          ],
          "specularFactor": 0.0
        }
      },
      "name": "mat_15.011",
      "pbrMetallicRoughness": {
        "baseColorTexture": {
          "index": 2
        },
        "metallicFactor": 0.0,
        "roughnessFactor": 0.5
      }
    },
    {
      "doubleSided": true,
      "extensions": {
        "KHR_materials_specular": {
          "specularColorFactor": [
            1.0,
            1.0,
            1.0
          ],
          "specularFactor": 0.41295363947775837
        }
      },
      "name": "mat_14.011",
      "pbrMetallicRoughness": {
        "baseColorTexture": {
          "index": 3
        },
        "metallicFactor": 0.7116212163694212,
        "metallicRoughnessTexture": {
          "index": 4
        },
        "roughnessFactor": 0.3702868427789494
      }
    },
    {
      "doubleSided": true,
      "extensions": {
        "KHR_materials_specular": {
          "specularColorFactor": [
            1.0,
            1.0,
            1.0
          ],
          "specularFactor": 0.0
        }
      },
      "name": "mat_11.011",
      "pbrMetallicRoughness": {
        "baseColorTexture": {
          "index": 5
        },
        "metallicFactor": 0.0,
        "roughnessFactor": 0.5
      }
    },
    {
      "alphaMode": "BLEND",
      "doubleSided": true,
      "extensions": {
        "KHR_materials_specular": {
          "specularColorFactor": [
            1.0,
            1.0,
            1.0
          ],
          "specularFactor": 0.0
        }
      },
      "name": "mat0.005",
      "pbrMetallicRoughness": {
        "baseColorTexture": {
          "index": 6
        },
        "metallicFactor": 0.313636,
        "roughnessFactor": 0.384605
      }
    }
  ],
  "meshes": [
    {
      "name": "Object_0",
      "primitives": [
        {
          "attributes": {
            "NORMAL": 1,
            "POSITION": 0,
            "TEXCOORD_0": 2,
            "TEXCOORD_1": 3
          },
          "indices": 4,
          "material": 0,
          "mode": 4
        }
      ]
    },
    {
      "name": "Object_1",
      "primitives": [
        {
          "attributes": {
            "NORMAL": 6,
            "POSITION": 5,
            "TEXCOORD_0": 7,
            "TEXCOORD_1": 8
          },
          "indices": 9,
          "material": 1,
          "mode": 4
        }
      ]
    },
    {
      "name": "Object_2",
      "primitives": [
        {
          "attributes": {
            "NORMAL": 11,
            "POSITION": 10,
            "TEXCOORD_0": 12,
            "TEXCOORD_1": 13,
            "TEXCOORD_2": 14
          },
          "indices": 15,
          "material": 2,
          "mode": 4
        }
      ]
    },
    {
      "name": "Object_3",
      "primitives": [
        {
          "attributes": {
            "NORMAL": 17,
            "POSITION": 16,
            "TEXCOORD_0": 18,
            "TEXCOORD_1": 19,
            "TEXCOORD_2": 20,
            "TEXCOORD_3": 21,
            "TEXCOORD_4": 22
          },
          "indices": 23,
          "material": 3,
          "mode": 4
        }
      ]
    },
    {
      "name": "Object_4",
      "primitives": [
        {
          "attributes": {
            "NORMAL": 25,
            "POSITION": 24,
            "TEXCOORD_0": 26,
            "TEXCOORD_1": 27,
            "TEXCOORD_2": 28
          },
          "indices": 29,
          "material": 4,
          "mode": 4
        }
      ]
    },
    {
      "name": "Object_5",
      "primitives": [
        {
          "attributes": {
            "NORMAL": 31,
            "POSITION": 30,
            "TEXCOORD_0": 32
          },
          "indices": 33,
          "material": 5,
          "mode": 4
        }
      ]
    }
  ],
  "nodes": [
    {
      "children": [
        1
      ],
      "matrix": [
        1.0,
        0.0,
        0.0,
        0.0,
        0.0,
        2.220446049250313e-16,
        -1.0,
        0.0,
        0.0,
        1.0,
        2.220446049250313e-16,
        0.0,
        0.0,
        0.0,
        0.0,
        1.0
      ],
      "name": "Sketchfab_model"
    },
    {
      "children": [
        2
      ],
      "name": "root"
    },
    {
      "children": [
        3,
        5,
        7,
        9,
        11,
        13
      ],
      "matrix": [
        1.0,
        0.0,
        0.0,
        0.0,
        0.0,
        2.220446049250313e-16,
        1.0,
        0.0,
        0.0,
        -1.0,
        2.220446049250313e-16,
        0.0,
        0.0,
        0.0,
        0.0,
        1.0
      ],
      "name": "GLTF_SceneRootNode"
    },
    {
      "children": [
        4
      ],
      "matrix": [
        -0.009999999776482466,
        0.0,
        1.5099578494221219e-09,
        0.0,
        -0.0,
        0.009999999776482582,
        0.0,
        0.0,
        -1.5099578494221219e-09,
        -0.0,
        -0.009999999776482466,
        0.0,
        0.0,
        0.0,
        0.0,
        1.0
      ],
      "name": "mesh_51_0"
    },
    {
      "mesh": 0,
      "name": "Object_4"
    },
    {
      "children": [
        6
      ],
      "matrix": [
        -0.009999999776482466,
        0.0,
        1.5099578494221219e-09,
        0.0,
        -0.0,
        0.009999999776482582,
        0.0,
        0.0,
        -1.5099578494221219e-09,
        -0.0,
        -0.009999999776482466,
        0.0,
        0.0,
        0.0,
        0.0,
        1.0
      ],
      "name": "mesh_50_1"
    },
    {
      "mesh": 1,
      "name": "Object_6"
    },
    {
      "children": [
        8
      ],
      "matrix": [
        -0.009999999776482466,
        0.0,
        1.5099578494221219e-09,
        0.0,
        -0.0,
        0.009999999776482582,
        0.0,
        0.0,
        -1.5099578494221219e-09,
        -0.0,
        -0.009999999776482466,
        0.0,
        0.0,
        0.0,
        0.0,
        1.0
      ],
      "name": "mesh_49_2"
    },
    {
      "mesh": 2,
      "name": "Object_8"
    },
    {
      "children": [
        10
      ],
      "matrix": [
        -0.009999999776482542,
        0.0,
        8.742277461942435e-10,
        0.0,
        -0.0,
        0.009999999776482582,
        0.0,
        0.0,
        -8.742277461942435e-10,
        -0.0,
        -0.009999999776482542,
        0.0,
        0.0,
        0.0,
        0.0,
        1.0
      ],
      "name": "mesh_48_3"
    },
    {
      "mesh": 3,
      "name": "Object_10"
    },
    {
      "children": [
        12
      ],
      "matrix": [
        -0.009999999776482466,
        0.0,
        1.5099578494221219e-09,
        0.0,
        -0.0,
        0.009999999776482582,
        0.0,
        0.0,
        -1.5099578494221219e-09,
        -0.0,
        -0.009999999776482466,
        0.0,
        0.0,
        0.0,
        0.0,
        1.0
      ],
      "name": "mesh_42_4"
    },
    {
      "mesh": 4,
      "name": "Object_12"
    },
    {
      "children": [
        14
      ],
      "matrix": [
        -0.009999999776482466,
        0.0,
        1.5099578494221219e-09,
        0.0,
        -0.0,
        0.009999999776482582,
        0.0,
        0.0,
        -1.5099578494221219e-09,
        -0.0,
        -0.009999999776482466,
        0.0,
        0.0,
        0.0,
        0.0,
        1.0
      ],
      "name": "Mesh_0034.rip.001_5"
    },
    {
      "mesh": 5,
      "name": "Object_14"
    }
  ],
  "samplers": [
    {
      "magFilter": 9729,
      "minFilter": 9987,
      "wrapS": 10497,
      "wrapT": 10497
    }
  ],
  "scene": 0,
  "scenes": [
    {
      "name": "Sketchfab_Scene",
      "nodes": [
        0
      ]
    }
  ],
  "textures": [
    {
      "sampler": 0,
      "source": 0
    },
    {
      "sampler": 0,
      "source": 1
    },
    {
      "sampler": 0,
      "source": 2
    },
    {
      "sampler": 0,
      "source": 3
    },
    {
      "sampler": 0,
      "source": 4
    },
    {
      "sampler": 0,
      "source": 5
    },
    {
      "sampler": 0,
      "source": 6
    }
  ]
}
