{
  "accessors": [
    {
      "bufferView": 2,
      "componentType": 5126,
      "count": 929,
      "max": [
        0.6175659894943237,
        0.047926001250743866,
        4.930562973022461
      ],
      "min": [
        0.16323600709438324,
        -0.4922719895839691,
        4.3390607833862305
      ],
      "type": "VEC3"
    },
    {
      "bufferView": 2,
      "byteOffset": 11148,
      "componentType": 5126,
      "count": 929,
      "max": [
        0.9999672174453735,
        0.9998773336410522,
        0.9907931685447693
      ],
      "min": [
        -0.9996713995933533,
        -0.999682605266571,
        -0.999721109867096
      ],
      "type": "VEC3"
    },
    {
      "bufferView": 1,
      "componentType": 5126,
      "count": 929,
      "max": [
        0.9975889921188354,
        0.9899600148200989
      ],
      "min": [
        0.005187999922782183,
        0.007263000123202801
      ],
      "type": "VEC2"
    },
    {
      "bufferView": 0,
      "componentType": 5125,
      "count": 4749,
      "type": "SCALAR"
    },
    {
      "bufferView": 2,
      "byteOffset": 22296,
      "componentType": 5126,
      "count": 76,
      "max": [
        0.663299024105072,
        -0.2656309902667999,
        4.1025872230529785
      ],
      "min": [
        0.05296599864959717,
        -0.47391098737716675,
        3.583508014678955
      ],
      "type": "VEC3"
    },
    {
      "bufferView": 2,
      "byteOffset": 23208,
      "componentType": 5126,
      "count": 76,
      "max": [
        0.4187116026878357,
        -0.7709180116653442,
        0.6197144985198975
      ],
      "min": [
        -0.5124978423118591,
        -0.9998968839645386,
        -0.32549598813056946
      ],
      "type": "VEC3"
    },
    {
      "bufferView": 1,
      "byteOffset": 7432,
      "componentType": 5126,
      "count": 76,
      "max": [
        0.9955599904060364,
        0.7386279702186584
      ],
      "min": [
        0.8450289964675903,
        0.5395439863204956
      ],
      "type": "VEC2"
    },
    {
      "bufferView": 0,
      "byteOffset": 18996,
      "componentType": 5125,
      "count": 339,
      "type": "SCALAR"
    },
    {
      "bufferView": 2,
      "byteOffset": 24120,
      "componentType": 5126,
      "count": 425,
      "max": [
        1.4362479448318481,
        0.1710519939661026,
        4.453330039978027
      ],
      "min": [
        -0.6660249829292297,
        -0.3739269971847534,
        -0.02004300057888031
      ],
      "type": "VEC3"
    },
    {
      "bufferView": 2,
      "byteOffset": 29220,
      "componentType": 5126,
      "count": 425,
      "max": [
        0.999961256980896,
        0.9998144507408142,
        0.8965137004852295
      ],
      "min": [
        -0.9996314644813538,
        -0.9959118366241455,
        -0.9089533686637878
      ],
      "type": "VEC3"
    },
    {
      "bufferView": 1,
      "byteOffset": 8040,
      "componentType": 5126,
      "count": 425,
      "max": [
        0.9877930283546448,
        0.986801028251648
      ],
      "min": [
        0.14775300025939941,
        0.01792900077998638
      ],
      "type": "VEC2"
    },
    {
      "bufferView": 0,
      "byteOffset": 20352,
      "componentType": 5125,
      "count": 1869,
      "type": "SCALAR"
    },
    {
      "bufferView": 2,
      "byteOffset": 34320,
      "componentType": 5126,
      "count": 592,
      "max": [
        0.987438976764679,
        0.20806199312210083,
        1.1510169506072998
      ],
      "min": [
        -0.25233501195907593,
        -0.424344003200531,
        -0.05079299956560135
      ],
      "type": "VEC3"
    },
    {
      "bufferView": 2,
      "byteOffset": 41424,
      "componentType": 5126,
      "count": 592,
      "max": [
        0.999788224697113,
        0.9915700554847717,
        0.9820947647094727
      ],
      "min": [
        -0.9999957084655762,
        -0.9978769421577454,
        -0.9999617338180542
      ],
      "type": "VEC3"
    },
    {
      "bufferView": 1,
      "byteOffset": 11440,
      "componentType": 5126,
      "count": 592,
      "max": [
        0.991500973701477,
        0.9955899715423584
      ],
      "min": [
        0.005386000033468008,
        0.00559999980032444
      ],
      "type": "VEC2"
    },
    {
      "bufferView": 0,
      "byteOffset": 27828,
      "componentType": 5125,
      "count": 2508,
      "type": "SCALAR"
    },
    {
      "bufferView": 2,
      "byteOffset": 48528,
      "componentType": 5126,
      "count": 1086,
      "max": [
        0.9131259918212891,
        0.1990409940481186,
        3.262031078338623
      ],
      "min": [
        -0.15479500591754913,
        -0.4549489915370941,
        0.38732099533081055
      ],
      "type": "VEC3"
    },
    {
      "bufferView": 2,
      "byteOffset": 61560,
      "componentType": 5126,
      "count": 1086,
      "max": [
        0.9992756843566895,
        0.9999196529388428,
        0.975318968296051
      ],
      "min": [
        -0.9999957084655762,
        -0.999682605266571,
        -0.9830882549285889
      ],
      "type": "VEC3"
    },
    {
      "bufferView": 1,
      "byteOffset": 16176,
      "componentType": 5126,
      "count": 1086,
      "max": [
        0.9956510066986084,
        0.9974820017814636
      ],
      "min": [
        0.010285000316798687,
        0.005309999920427799
      ],
      "type": "VEC2"
    },
    {
      "bufferView": 0,
      "byteOffset": 37860,
      "componentType": 5125,
      "count": 5268,
      "type": "SCALAR"
    },
    {
      "bufferView": 2,
      "byteOffset": 74592,
      "componentType": 5126,
      "count": 1903,
      "max": [
        1.7761889696121216,
        0.2267480045557022,
        4.402353763580322
      ],
      "min": [
        -1.0168910026550293,
        -0.5095710158348083,
        2.4480960369110107
      ],
      "type": "VEC3"
    },
    {
      "bufferView": 2,
      "byteOffset": 97428,
      "componentType": 5126,
      "count": 1903,
      "max": [
        0.9993669986724854,
        0.9998156428337097,
        0.9733451008796692
      ],
      "min": [
        -0.9996514916419983,
        -0.9999655485153198,
        -0.9861704707145691
      ],
      "type": "VEC3"
    },
    {
      "bufferView": 1,
      "byteOffset": 24864,
      "componentType": 5126,
      "count": 1903,
      "max": [
        0.9965360164642334,
        0.9959719777107239
      ],
      "min": [
        0.0050050001591444016,
        0.0025029999669641256
      ],
      "type": "VEC2"
    },
    {
      "bufferView": 0,
      "byteOffset": 58932,
      "componentType": 5125,
      "count": 8061,
      "type": "SCALAR"
    },
    {
      "bufferView": 2,
      "byteOffset": 120264,
      "componentType": 5126,
      "count": 2817,
      "max": [
        0.8091899752616882,
        0.37252500653266907,
        4.973939895629883
      ],
      "min": [
        -0.03296099975705147,
        -0.4662039875984192,
        3.600346088409424
      ],
      "type": "VEC3"
    },
    {
      "bufferView": 2,
      "byteOffset": 154068,
      "componentType": 5126,
      "count": 2817,
      "max": [
        0.9996290802955627,
        0.9996896386146545,
        0.9999986886978149
      ],
      "min": [
        -0.9987908005714417,
        -0.9994567036628723,
        -0.8432239294052124
      ],
      "type": "VEC3"
    },
    {
      "bufferView": 1,
      "byteOffset": 40088,
      "componentType": 5126,
      "count": 2817,
      "max": [
        0.9429159760475159,
        0.9931939840316772
      ],
      "min": [
        0.011382999829947948,
        0.09092800319194794
      ],
      "type": "VEC2"
    },
    {
      "bufferView": 0,
      "byteOffset": 91176,
      "componentType": 5125,
      "count": 8484,
      "type": "SCALAR"
    },
    {
      "bufferView": 2,
      "byteOffset": 187872,
      "componentType": 5126,
      "count": 1541,
      "max": [
        1.6305660009384155,
        0.3734090030193329,
        4.18095588684082
      ],
      "min": [
        -0.8663840293884277,
        -0.5157870054244995,
        2.1188299655914307
      ],
      "type": "VEC3"
    },
    {
      "bufferView": 2,
      "byteOffset": 206364,
      "componentType": 5126,
      "count": 1541,
      "max": [
        0.9990620613098145,
        0.9998156428337097,
        0.645080029964447
      ],
      "min": [
        -0.998339056968689,
        -0.9989374876022339,
        -0.9941065907478333
      ],
      "type": "VEC3"
    },
    {
      "bufferView": 1,
      "byteOffset": 62624,
      "componentType": 5126,
      "count": 1541,
      "max": [
        0.9926450252532959,
        0.8755469918251038
      ],
      "min": [
        0.00596599979326129,
        0.008330999873578548
      ],
      "type": "VEC2"
    },
    {
      "bufferView": 0,
      "byteOffset": 125112,
      "componentType": 5125,
      "count": 6753,
      "type": "SCALAR"
    }
  ],
  "asset": {
    "extras": {
      "author": "PACE GAMING FF (https://sketchfab.com/MDARBAZ_.OR___-PACEGAMINGFF)",
      "license": "CC-BY-4.0 (http://creativecommons.org/licenses/by/4.0/)",
      "source": "https://sketchfab.com/3d-models/freefire-new-female-3d-model-by-pace-gaming-0cbffe23ef1046cda01985a5eb4d088e",
      "title": "freefire new female 3d model by pace gaming"
    },
    "generator": "Sketchfab-15.31.0",
    "version": "2.0"
  },
  "bufferViews": [
    {
      "buffer": 0,
      "byteLength": 152124,
      "name": "floatBufferViews",
      "target": 34963
    },
    {
      "buffer": 0,
      "byteLength": 74952,
      "byteOffset": 152124,
      "byteStride": 8,
      "name": "floatBufferViews",
      "target": 34962
    },
    {
      "buffer": 0,
      "byteLength": 224856,
      "byteOffset": 227076,
      "byteStride": 12,
      "name": "floatBufferViews",
      "target": 34962
    }
  ],
  "buffers": [
    {
      "byteLength": 451932,
      "uri": "scene.bin"
    }
  ],
  "images": [
    {
      "uri": "textures/mat0.021_baseColor.png"
    },
    {
      "uri": "textures/mat0.022_baseColor.png"
    },
    {
      "uri": "textures/mat0.023_baseColor.png"
    },
    {
      "uri": "textures/mat0.024_baseColor.png"
    },
    {
      "uri": "textures/mat0.025_baseColor.png"
    },
    {
      "uri": "textures/mat0.027_baseColor.png"
    }
  ],
  "materials": [
    {
      "doubleSided": true,
      "name": "mat0.021",
      "pbrMetallicRoughness": {
        "baseColorTexture": {
          "index": 0
        },
        "metallicFactor": 0.0,
        "roughnessFactor": 0.6342256411356907
      }
    },
    {
      "doubleSided": true,
      "name": "mat0.022",
      "pbrMetallicRoughness": {
        "baseColorTexture": {
          "index": 1
        },
        "metallicFactor": 0.0,
        "roughnessFactor": 0.6342256411356907
      }
    },
    {
      "doubleSided": true,
      "name": "mat0.023",
      "pbrMetallicRoughness": {
        "baseColorTexture": {
          "index": 2
        },
        "metallicFactor": 0.0,
        "roughnessFactor": 0.6342256411356907
      }
    },
    {
      "doubleSided": true,
      "name": "mat0.024",
      "pbrMetallicRoughness": {
        "baseColorTexture": {
          "index": 3
        },
        "metallicFactor": 0.0,
        "roughnessFactor": 0.6342256411356907
      }
    },
    {
      "doubleSided": true,
      "name": "mat0.025",
      "pbrMetallicRoughness": {
        "baseColorTexture": {
          "index": 4
        },
        "metallicFactor": 0.0,
        "roughnessFactor": 0.6342256411356907
      }
    },
    {
      "doubleSided": true,
      "name": "mat0.026",
      "pbrMetallicRoughness": {
        "baseColorTexture": {
          "index": 1
        },
        "metallicFactor": 0.0,
        "roughnessFactor": 0.6342256411356907
      }
    },
    {
      "doubleSided": true,
      "name": "mat0.027",
      "pbrMetallicRoughness": {
        "baseColorTexture": {
          "index": 5
        },
        "metallicFactor": 0.0,
        "roughnessFactor": 0.6342256411356907
      }
    },
    {
      "doubleSided": true,
      "name": "mat1.002",
      "pbrMetallicRoughness": {
        "baseColorTexture": {
          "index": 1
        },
        "metallicFactor": 0.0,
        "roughnessFactor": 0.6342256411356907
      }
    }
  ],
  "meshes": [
    {
      "name": "Object_0",
      "primitives": [
        {
          "attributes": {
            "NORMAL": 1,
            "POSITION": 0,
            "TEXCOORD_0": 2
          },
          "indices": 3,
          "material": 0,
          "mode": 4
        }
      ]
    },
    {
      "name": "Object_1",
      "primitives": [
        {
          "attributes": {
            "NORMAL": 5,
            "POSITION": 4,
            "TEXCOORD_0": 6
          },
          "indices": 7,
          "material": 1,
          "mode": 4
        }
      ]
    },
    {
      "name": "Object_2",
      "primitives": [
        {
          "attributes": {
            "NORMAL": 9,
            "POSITION": 8,
            "TEXCOORD_0": 10
          },
          "indices": 11,
          "material": 2,
          "mode": 4
        }
      ]
    },
    {
      "name": "Object_3",
      "primitives": [
        {
          "attributes": {
            "NORMAL": 13,
            "POSITION": 12,
            "TEXCOORD_0": 14
          },
          "indices": 15,
          "material": 3,
          "mode": 4
        }
      ]
    },
    {
      "name": "Object_4",
      "primitives": [
        {
          "attributes": {
            "NORMAL": 17,
            "POSITION": 16,
            "TEXCOORD_0": 18
          },
          "indices": 19,
          "material": 4,
          "mode": 4
        }
      ]
    },
    {
      "name": "Object_5",
      "primitives": [
        {
          "attributes": {
            "NORMAL": 21,
            "POSITION": 20,
            "TEXCOORD_0": 22
          },
          "indices": 23,
          "material": 5,
          "mode": 4
        }
      ]
    },
    {
      "name": "Object_6",
      "primitives": [
        {
          "attributes": {
            "NORMAL": 25,
            "POSITION": 24,
            "TEXCOORD_0": 26
          },
          "indices": 27,
          "material": 6,
          "mode": 4
        }
      ]
    },
    {
      "name": "Object_7",
      "primitives": [
        {
          "attributes": {
            "NORMAL": 29,
            "POSITION": 28,
            "TEXCOORD_0": 30
          },
          "indices": 31,
          "material": 7,
          "mode": 4
        }
      ]
    }
  ],
  "nodes": [
    {
      "children": [
        1
      ],
      "matrix": [
        1.0,
        0.0,
        0.0,
        0.0,
        0.0,
        2.220446049250313e-16,
        -1.0,
        0.0,
        0.0,
        1.0,
        2.220446049250313e-16,
        0.0,
        0.0,
        0.0,
        0.0,
        1.0
      ],
      "name": "Sketchfab_model"
    },
    {
      "children": [
        2,
        3,
        4,
        5,
        6,
        7,
        8,
        9
      ],
      "name": "4.obj.cleaner.materialmerger.gles"
    },
    {
      "mesh": 0,
      "name": "Object_2"
    },
    {
      "mesh": 1,
      "name": "Object_3"
    },
    {
      "mesh": 2,
      "name": "Object_4"
    },
    {
      "mesh": 3,
      "name": "Object_5"
    },
    {
      "mesh": 4,
      "name": "Object_6"
    },
    {
      "mesh": 5,
      "name": "Object_7"
    },
    {
      "mesh": 6,
      "name": "Object_8"
    },
    {
      "mesh": 7,
      "name": "Object_9"
    }
  ],
  "samplers": [
    {
      "magFilter": 9729,
      "minFilter": 9987,
      "wrapS": 10497,
      "wrapT": 10497
    }
  ],
  "scene": 0,
  "scenes": [
    {
      "name": "Sketchfab_Scene",
      "nodes": [
        0
      ]
    }
  ],
  "textures": [
    {
      "sampler": 0,
      "source": 0
    },
    {
      "sampler": 0,
      "source": 1
    },
    {
      "sampler": 0,
      "source": 2
    },
    {
      "sampler": 0,
      "source": 3
    },
    {
      "sampler": 0,
      "source": 4
    },
    {
      "sampler": 0,
      "source": 5
    }
  ]
}
