{
  "accessors": [
    {
      "bufferView": 2,
      "componentType": 5126,
      "count": 6634,
      "max": [
        5.764102935791016,
        3.127711057662964,
        32.18510818481445
      ],
      "min": [
        -5.764101982116699,
        -3.2941179275512695,
        0.7161210179328918
      ],
      "type": "VEC3"
    },
    {
      "bufferView": 2,
      "byteOffset": 79608,
      "componentType": 5126,
      "count": 6634,
      "max": [
        1.0,
        1.0,
        1.0
      ],
      "min": [
        -1.0,
        -1.0,
        -1.0
      ],
      "type": "VEC3"
    },
    {
      "bufferView": 1,
      "componentType": 5126,
      "count": 6634,
      "max": [
        0.9831770062446594,
        0.9942920207977295
      ],
      "min": [
        0.005499999970197678,
        0.005688000004738569
      ],
      "type": "VEC2"
    },
    {
      "bufferView": 0,
      "componentType": 5125,
      "count": 13065,
      "type": "SCALAR"
    },
    {
      "bufferView": 2,
      "byteOffset": 159216,
      "componentType": 5126,
      "count": 4200,
      "max": [
        28.000764846801758,
        8.834333419799805,
        58.987491607666016
      ],
      "min": [
        -28.10099220275879,
        -5.838500022888184,
        30.66738510131836
      ],
      "type": "VEC3"
    },
    {
      "bufferView": 2,
      "byteOffset": 209616,
      "componentType": 5126,
      "count": 4200,
      "max": [
        1.0,
        0.9999995231628418,
        0.9992620944976807
      ],
      "min": [
        -1.0,
        -0.9999504089355469,
        -0.9999759793281555
      ],
      "type": "VEC3"
    },
    {
      "bufferView": 1,
      "byteOffset": 53072,
      "componentType": 5126,
      "count": 4200,
      "max": [
        0.9919779896736145,
        0.9947890043258667
      ],
      "min": [
        0.3077259957790375,
        0.344325989484787
      ],
      "type": "VEC2"
    },
    {
      "bufferView": 0,
      "byteOffset": 52260,
      "componentType": 5125,
      "count": 16164,
      "type": "SCALAR"
    },
    {
      "bufferView": 2,
      "byteOffset": 260016,
      "componentType": 5126,
      "count": 1962,
      "max": [
        9.447643280029297,
        7.3273820877075195,
        57.815650939941406
      ],
      "min": [
        -9.449745178222656,
        -6.619760990142822,
        29.34856414794922
      ],
      "type": "VEC3"
    },
    {
      "bufferView": 2,
      "byteOffset": 283560,
      "componentType": 5126,
      "count": 1962,
      "max": [
        0.9994829297065735,
        0.9999994039535522,
        0.9998829364776611
      ],
      "min": [
        -0.9994847178459167,
        -0.999997615814209,
        -0.9999604225158691
      ],
      "type": "VEC3"
    },
    {
      "bufferView": 1,
      "byteOffset": 86672,
      "componentType": 5126,
      "count": 1962,
      "max": [
        0.993910014629364,
        0.9939380288124084
      ],
      "min": [
        0.0030139998998492956,
        0.01049800030887127
      ],
      "type": "VEC2"
    },
    {
      "bufferView": 0,
      "byteOffset": 116916,
      "componentType": 5125,
      "count": 9756,
      "type": "SCALAR"
    },
    {
      "bufferView": 2,
      "byteOffset": 307104,
      "componentType": 5126,
      "count": 12731,
      "max": [
        5.249971866607666,
        3.5819199085235596,
        8.087029457092285
      ],
      "min": [
        -5.249989986419678,
        -6.596092224121094,
        -0.006364999804645777
      ],
      "type": "VEC3"
    },
    {
      "bufferView": 2,
      "byteOffset": 459876,
      "componentType": 5126,
      "count": 12731,
      "max": [
        0.9999771118164063,
        0.9999990463256836,
        0.9999997615814209
      ],
      "min": [
        -0.9999771118164063,
        -0.9999622106552124,
        -0.9999622106552124
      ],
      "type": "VEC3"
    },
    {
      "bufferView": 1,
      "byteOffset": 102368,
      "componentType": 5126,
      "count": 12731,
      "max": [
        0.9983599781990051,
        0.9996179938316345
      ],
      "min": [
        0.0020490000024437904,
        0.0015810000477358699
      ],
      "type": "VEC2"
    },
    {
      "bufferView": 0,
      "byteOffset": 155940,
      "componentType": 5125,
      "count": 40032,
      "type": "SCALAR"
    },
    {
      "bufferView": 2,
      "byteOffset": 612648,
      "componentType": 5126,
      "count": 25349,
      "max": [
        33.304569244384766,
        3.4792819023132324,
        62.109397888183594
      ],
      "min": [
        -33.304561614990234,
        -4.632749080657959,
        0.7765169739723206
      ],
      "type": "VEC3"
    },
    {
      "bufferView": 2,
      "byteOffset": 916836,
      "componentType": 5126,
      "count": 25349,
      "max": [
        1.0,
        1.0,
        1.0
      ],
      "min": [
        -1.0,
        -1.0,
        -1.0
      ],
      "type": "VEC3"
    },
    {
      "bufferView": 1,
      "byteOffset": 204216,
      "componentType": 5126,
      "count": 25349,
      "max": [
        0.9923930168151855,
        0.9870169758796692
      ],
      "min": [
        0.007606999948620796,
        0.009596000425517559
      ],
      "type": "VEC2"
    },
    {
      "bufferView": 0,
      "byteOffset": 316068,
      "componentType": 5125,
      "count": 69531,
      "type": "SCALAR"
    },
    {
      "bufferView": 2,
      "byteOffset": 1221024,
      "componentType": 5126,
      "count": 9957,
      "max": [
        4.516840934753418,
        3.689505100250244,
        69.6711196899414
      ],
      "min": [
        -4.516840934753418,
        -4.478538990020752,
        59.10498809814453
      ],
      "type": "VEC3"
    },
    {
      "bufferView": 2,
      "byteOffset": 1340508,
      "componentType": 5126,
      "count": 9957,
      "max": [
        0.9997101426124573,
        0.9994386434555054,
        0.9770752191543579
      ],
      "min": [
        -0.9997071623802185,
        -0.9999843835830688,
        -0.992858350276947
      ],
      "type": "VEC3"
    },
    {
      "bufferView": 1,
      "byteOffset": 407008,
      "componentType": 5126,
      "count": 9957,
      "max": [
        0.9962679743766785,
        0.9930670261383057
      ],
      "min": [
        0.0037320000119507313,
        0.010305999778211117
      ],
      "type": "VEC2"
    },
    {
      "bufferView": 0,
      "byteOffset": 594192,
      "componentType": 5125,
      "count": 48294,
      "type": "SCALAR"
    },
    {
      "bufferView": 2,
      "byteOffset": 1459992,
      "componentType": 5126,
      "count": 979,
      "max": [
        -0.19899900257587433,
        5.341679096221924,
        70.65657806396484
      ],
      "min": [
        -8.715185165405273,
        -3.235637903213501,
        60.002685546875
      ],
      "type": "VEC3"
    },
    {
      "bufferView": 2,
      "byteOffset": 1471740,
      "componentType": 5126,
      "count": 979,
      "max": [
        0.9859563708305359,
        0.9926593899726868,
        0.9997665286064148
      ],
      "min": [
        -0.9993219375610352,
        -0.9998584985733032,
        -0.999818742275238
      ],
      "type": "VEC3"
    },
    {
      "bufferView": 1,
      "byteOffset": 486664,
      "componentType": 5126,
      "count": 979,
      "max": [
        0.9926069974899292,
        0.6906650066375732
      ],
      "min": [
        0.7027199864387512,
        0.4175559878349304
      ],
      "type": "VEC2"
    },
    {
      "bufferView": 0,
      "byteOffset": 787368,
      "componentType": 5125,
      "count": 4617,
      "type": "SCALAR"
    },
    {
      "bufferView": 2,
      "byteOffset": 1483488,
      "componentType": 5126,
      "count": 9111,
      "max": [
        12.898799896240234,
        29.02092933654785,
        70.70519256591797
      ],
      "min": [
        -12.8988037109375,
        -5.455325126647949,
        12.086137771606445
      ],
      "type": "VEC3"
    },
    {
      "bufferView": 2,
      "byteOffset": 1592820,
      "componentType": 5126,
      "count": 9111,
      "max": [
        0.9998130202293396,
        0.9998156428337097,
        0.9999982118606567
      ],
      "min": [
        -0.9999657869338989,
        -0.9999986886978149,
        -0.9997920393943787
      ],
      "type": "VEC3"
    },
    {
      "bufferView": 1,
      "byteOffset": 494496,
      "componentType": 5126,
      "count": 9111,
      "max": [
        0.9954059720039368,
        0.9913179874420166
      ],
      "min": [
        0.0033199999015778303,
        0.002966000000014901
      ],
      "type": "VEC2"
    },
    {
      "bufferView": 0,
      "byteOffset": 805836,
      "componentType": 5125,
      "count": 46371,
      "type": "SCALAR"
    },
    {
      "bufferView": 2,
      "byteOffset": 1702152,
      "componentType": 5126,
      "count": 2139,
      "max": [
        6.420844078063965,
        21.31171989440918,
        72.38630676269531
      ],
      "min": [
        -7.359694004058838,
        -5.727529048919678,
        13.605964660644531
      ],
      "type": "VEC3"
    },
    {
      "bufferView": 2,
      "byteOffset": 1727820,
      "componentType": 5126,
      "count": 2139,
      "max": [
        0.9992012977600098,
        0.9996897578239441,
        0.999988317489624
      ],
      "min": [
        -0.9992702007293701,
        -0.9930596351623535,
        -0.9943721890449524
      ],
      "type": "VEC3"
    },
    {
      "bufferView": 1,
      "byteOffset": 567384,
      "componentType": 5126,
      "count": 2139,
      "max": [
        0.9885309934616089,
        0.9925510287284851
      ],
      "min": [
        0.011982000432908535,
        0.010587000288069248
      ],
      "type": "VEC2"
    },
    {
      "bufferView": 0,
      "byteOffset": 991320,
      "componentType": 5125,
      "count": 9984,
      "type": "SCALAR"
    },
    {
      "bufferView": 2,
      "byteOffset": 1753488,
      "componentType": 5126,
      "count": 1264,
      "max": [
        4.905198097229004,
        6.625312805175781,
        66.46666717529297
      ],
      "min": [
        -4.279163837432861,
        -5.134315013885498,
        63.73627853393555
      ],
      "type": "VEC3"
    },
    {
      "bufferView": 2,
      "byteOffset": 1768656,
      "componentType": 5126,
      "count": 1264,
      "max": [
        0.9960976243019104,
        0.9991243481636047,
        0.9987934231758118
      ],
      "min": [
        -0.9978646636009216,
        -0.9994540810585022,
        -0.9991297125816345
      ],
      "type": "VEC3"
    },
    {
      "bufferView": 1,
      "byteOffset": 584496,
      "componentType": 5126,
      "count": 1264,
      "max": [
        0.9766600131988525,
        0.9870780110359192
      ],
      "min": [
        0.0177800003439188,
        0.4045430123806
      ],
      "type": "VEC2"
    },
    {
      "bufferView": 0,
      "byteOffset": 1031256,
      "componentType": 5125,
      "count": 5796,
      "type": "SCALAR"
    }
  ],
  "asset": {
    "extras": {
      "author": "VückyZ (https://sketchfab.com/vuckyz123)",
      "license": "CC-BY-4.0 (http://creativecommons.org/licenses/by/4.0/)",
      "source": "https://sketchfab.com/3d-models/vrc-kipfel-youth-56a0f8f284194f7ebad1f07db2c4ec89",
      "title": "[VRC] Kipfel (Youth)"
    },
    "generator": "Sketchfab-16.74.0",
    "version": "2.0"
  },
  "bufferViews": [
    {
      "buffer": 0,
      "byteLength": 1054440,
      "name": "floatBufferViews",
      "target": 34963
    },
    {
      "buffer": 0,
      "byteLength": 594608,
      "byteOffset": 1054440,
      "byteStride": 8,
      "name": "floatBufferViews",
      "target": 34962
    },
    {
      "buffer": 0,
      "byteLength": 1783824,
      "byteOffset": 1649048,
      "byteStride": 12,
      "name": "floatBufferViews",
      "target": 34962
    }
  ],
  "buffers": [
    {
      "byteLength": 3432872,
      "uri": "scene.bin"
    }
  ],
  "extensionsUsed": [
    "KHR_materials_unlit"
  ],
  "images": [
    {
      "uri": "textures/Dark_baseColor.png"
    },
    {
      "uri": "textures/Outfit01_baseColor.png"
    },
    {
      "uri": "textures/material_baseColor.png"
    },
    {
      "uri": "textures/Shinano_body_flat_baseColor.png"
    },
    {
      "uri": "textures/face_baseColor.png"
    },
    {
      "uri": "textures/hair_baseColor.png"
    },
    {
      "uri": "textures/outfit02_baseColor.png"
    },
    {
      "uri": "textures/silver_baseColor.png"
    }
  ],
  "materials": [
    {
      "doubleSided": true,
      "extensions": {
        "KHR_materials_unlit": {}
      },
      "name": "Dark",
      "pbrMetallicRoughness": {
        "baseColorTexture": {
          "index": 0
        },
        "metallicFactor": 0.0
      }
    },
    {
      "doubleSided": true,
      "extensions": {
        "KHR_materials_unlit": {}
      },
      "name": "Outfit01",
      "pbrMetallicRoughness": {
        "baseColorTexture": {
          "index": 1
        },
        "metallicFactor": 0.0
      }
    },
    {
      "doubleSided": true,
      "extensions": {
        "KHR_materials_unlit": {}
      },
      "name": "material",
      "pbrMetallicRoughness": {
        "baseColorTexture": {
          "index": 2
        },
        "metallicFactor": 0.0
      }
    },
    {
      "doubleSided": true,
      "extensions": {
        "KHR_materials_unlit": {}
      },
      "name": "Shinano_body_flat",
      "pbrMetallicRoughness": {
        "baseColorTexture": {
          "index": 3
        },
        "metallicFactor": 0.0
      }
    },
    {
      "doubleSided": true,
      "extensions": {
        "KHR_materials_unlit": {}
      },
      "name": "face",
      "pbrMetallicRoughness": {
        "baseColorTexture": {
          "index": 4
        },
        "metallicFactor": 0.0
      }
    },
    {
      "doubleSided": true,
      "extensions": {
        "KHR_materials_unlit": {}
      },
      "name": "hair",
      "pbrMetallicRoughness": {
        "baseColorTexture": {
          "index": 5
        },
        "metallicFactor": 0.0
      }
    },
    {
      "doubleSided": true,
      "extensions": {
        "KHR_materials_unlit": {}
      },
      "name": "outfit02",
      "pbrMetallicRoughness": {
        "baseColorTexture": {
          "index": 6
        },
        "metallicFactor": 0.0
      }
    },
    {
      "doubleSided": true,
      "extensions": {
        "KHR_materials_unlit": {}
      },
      "name": "silver",
      "pbrMetallicRoughness": {
        "baseColorTexture": {
          "index": 7
        },
        "metallicFactor": 0.0
      }
    }
  ],
  "meshes": [
    {
      "name": "Object_0",
      "primitives": [
        {
          "attributes": {
            "NORMAL": 1,
            "POSITION": 0,
            "TEXCOORD_0": 2
          },
          "indices": 3,
          "material": 0,
          "mode": 4
        }
      ]
    },
    {
      "name": "Object_1",
      "primitives": [
        {
          "attributes": {
            "NORMAL": 5,
            "POSITION": 4,
            "TEXCOORD_0": 6
          },
          "indices": 7,
          "material": 1,
          "mode": 4
        }
      ]
    },
    {
      "name": "Object_2",
      "primitives": [
        {
          "attributes": {
            "NORMAL": 9,
            "POSITION": 8,
            "TEXCOORD_0": 10
          },
          "indices": 11,
          "material": 1,
          "mode": 4
        }
      ]
    },
    {
      "name": "Object_3",
      "primitives": [
        {
          "attributes": {
            "NORMAL": 13,
            "POSITION": 12,
            "TEXCOORD_0": 14
          },
          "indices": 15,
          "material": 2,
          "mode": 4
        }
      ]
    },
    {
      "name": "Object_4",
      "primitives": [
        {
          "attributes": {
            "NORMAL": 17,
            "POSITION": 16,
            "TEXCOORD_0": 18
          },
          "indices": 19,
          "material": 3,
          "mode": 4
        }
      ]
    },
    {
      "name": "Object_5",
      "primitives": [
        {
          "attributes": {
            "NORMAL": 21,
            "POSITION": 20,
            "TEXCOORD_0": 22
          },
          "indices": 23,
          "material": 4,
          "mode": 4
        }
      ]
    },
    {
      "name": "Object_6",
      "primitives": [
        {
          "attributes": {
            "NORMAL": 25,
            "POSITION": 24,
            "TEXCOORD_0": 26
          },
          "indices": 27,
          "material": 5,
          "mode": 4
        }
      ]
    },
    {
      "name": "Object_7",
      "primitives": [
        {
          "attributes": {
            "NORMAL": 29,
            "POSITION": 28,
            "TEXCOORD_0": 30
          },
          "indices": 31,
          "material": 5,
          "mode": 4
        }
      ]
    },
    {
      "name": "Object_8",
      "primitives": [
        {
          "attributes": {
            "NORMAL": 33,
            "POSITION": 32,
            "TEXCOORD_0": 34
          },
          "indices": 35,
          "material": 6,
          "mode": 4
        }
      ]
    },
    {
      "name": "Object_9",
      "primitives": [
        {
          "attributes": {
            "NORMAL": 37,
            "POSITION": 36,
            "TEXCOORD_0": 38
          },
          "indices": 39,
          "material": 7,
          "mode": 4
        }
      ]
    }
  ],
  "nodes": [
    {
      "children": [
        1
      ],
      "matrix": [
        0.023593004792928696,
        0.0,
        0.0,
        0.0,
        0.0,
        5.238699428240222e-18,
        -0.023593004792928696,
        0.0,
        0.0,
        0.023593004792928696,
        5.238699428240222e-18,
        0.0,
        0.0,
        0.0,
        0.0,
        1.0
      ],
      "name": "Sketchfab_model"
    },
    {
      "children": [
        2,
        3,
        4,
        5,
        6,
        7,
        8,
        9,
        10,
        11
      ],
      "name": "shin.obj.cleaner.materialmerger.gles"
    },
    {
      "mesh": 0,
      "name": "Object_2"
    },
    {
      "mesh": 1,
      "name": "Object_3"
    },
    {
      "mesh": 2,
      "name": "Object_4"
    },
    {
      "mesh": 3,
      "name": "Object_5"
    },
    {
      "mesh": 4,
      "name": "Object_6"
    },
    {
      "mesh": 5,
      "name": "Object_7"
    },
    {
      "mesh": 6,
      "name": "Object_8"
    },
    {
      "mesh": 7,
      "name": "Object_9"
    },
    {
      "mesh": 8,
      "name": "Object_10"
    },
    {
      "mesh": 9,
      "name": "Object_11"
    }
  ],
  "samplers": [
    {
      "magFilter": 9729,
      "minFilter": 9987,
      "wrapS": 10497,
      "wrapT": 10497
    }
  ],
  "scene": 0,
  "scenes": [
    {
      "name": "Sketchfab_Scene",
      "nodes": [
        0
      ]
    }
  ],
  "textures": [
    {
      "sampler": 0,
      "source": 0
    },
    {
      "sampler": 0,
      "source": 1
    },
    {
      "sampler": 0,
      "source": 2
    },
    {
      "sampler": 0,
      "source": 3
    },
    {
      "sampler": 0,
      "source": 4
    },
    {
      "sampler": 0,
      "source": 5
    },
    {
      "sampler": 0,
      "source": 6
    },
    {
      "sampler": 0,
      "source": 7
    }
  ]
}
